<svg width="24" height="24" viewBox="0 0 24 24" fill="none" xmlns="http://www.w3.org/2000/svg">
<g clip-path="url(#clip0_866_6086)">
<path d="M0.495076 12.4155C0.26764 12.5469 0.101695 12.7632 0.0337341 13.0169C-0.0342265 13.2706 0.00136305 13.541 0.132676 13.7684L4.53428 21.3927C4.59932 21.5054 4.68592 21.6041 4.78913 21.6833C4.89233 21.7625 5.01013 21.8206 5.13578 21.8542C5.26143 21.8879 5.39248 21.8964 5.52144 21.8794C5.6504 21.8624 5.77476 21.8202 5.8874 21.7551L23.5048 11.5839C23.6175 11.5189 23.7162 11.4323 23.7954 11.3291C23.8746 11.2259 23.9326 11.1081 23.9663 10.9824C23.9999 10.8568 24.0085 10.7257 23.9915 10.5968C23.9745 10.4678 23.9323 10.3435 23.8672 10.2308L19.4656 2.60651C19.4006 2.49386 19.314 2.39513 19.2108 2.31595C19.1076 2.23677 18.9898 2.1787 18.8641 2.14505C18.7385 2.1114 18.6074 2.10282 18.4785 2.11982C18.3495 2.13682 18.2252 2.17905 18.1125 2.24411L0.495076 12.4155ZM2.34332 13.6357L18.2452 4.45475L21.6566 10.3635L20.5106 11.0252L19.2321 8.81027L18.3744 9.30563L19.6528 11.5203L18.3412 12.2778L17.0625 10.0628L16.2048 10.5582L17.4835 12.7729L16.1733 13.5294L14.8946 11.3144L14.0368 11.8098L15.3156 14.0245L14.004 14.7819L12.227 11.7044L11.3692 12.1995L13.1462 15.2771L11.8344 16.0345L10.5556 13.8195L9.69788 14.3149L10.9766 16.5296L9.66644 17.2859L8.38796 15.0711L7.5302 15.5665L8.80868 17.7812L7.49708 18.5384L6.21836 16.3237L5.3606 16.8191L6.63932 19.0338L5.75468 19.5445L2.34332 13.6357Z" fill="white"/>
</g>
<defs>
<clipPath id="clip0_866_6086">
<rect width="24" height="24" fill="white"/>
</clipPath>
</defs>
</svg>
